<svg version="1.1" xmlns="http://www.w3.org/2000/svg" viewBox="0 0 312.4806683568195 349.4566069567254" width="312.4806683568195" height="349.4566069567254">
  <!-- svg-source:excalidraw -->
  
  <defs>
    <style class="style-fonts">
      @font-face {
        font-family: "Virgil";
        src: url("https://excalidraw.com/Virgil.woff2");
      }
      @font-face {
        font-family: "Cascadia";
        src: url("https://excalidraw.com/Cascadia.woff2");
      }
    </style>
  </defs>
  <g transform="translate(164.0986542033852 222.25319272780325) rotate(0.051526600419540804 -0.9228469369704726 0)" stroke="none"><path fill="#5f3dc4" d="M 8.48,-2.64 Q 8.48,-2.64 8.60,-0.52 8.73,1.60 7.86,3.53 6.99,5.47 5.31,6.78 3.64,8.10 1.55,8.48 -0.53,8.86 -2.56,8.23 -4.59,7.60 -6.09,6.09 -7.60,4.59 -8.23,2.56 -8.86,0.53 -8.48,-1.55 -8.09,-3.64 -6.78,-5.31 -5.47,-6.99 -3.53,-7.86 -1.59,-8.73 0.52,-8.60 2.64,-8.47 4.46,-7.37 6.28,-6.27 7.38,-4.46 L 8.48,-2.64 Z"></path></g><g transform="translate(147.98231093506183 214.00641603487657) rotate(0.051526600419540804 -59.00037307889306 -46.00569030889665)" stroke="none"><path fill="#5f3dc4" d="M 14.95,8.48 Q 14.95,8.48 12.84,7.48 10.73,6.48 6.70,4.27 2.66,2.07 -0.89,-0.47 -4.45,-3.03 -7.40,-6.71 -10.35,-10.38 -13.25,-14.35 -16.14,-18.32 -19.47,-22.87 -22.80,-27.42 -25.49,-31.58 -28.19,-35.74 -30.09,-40.69 -31.99,-45.65 -34.64,-49.17 -37.28,-52.69 -39.25,-56.80 -41.22,-60.92 -34.10,-59.36 -26.98,-57.80 -30.24,-55.05 -33.50,-52.31 -34.93,-47.06 -36.37,-41.80 -36.97,-37.25 -37.58,-32.70 -40.31,-27.68 -43.04,-22.66 -44.93,-17.75 -46.83,-12.85 -50.67,-7.35 -54.52,-1.84 -52.27,-5.58 -50.02,-9.32 -52.38,-4.17 -54.74,0.97 -56.07,6.01 -57.39,11.05 -59.98,14.82 -62.58,18.58 -65.13,22.32 -67.68,26.06 -71.05,30.69 -74.42,35.31 -76.70,40.18 -78.99,45.04 -81.27,49.21 -83.55,53.39 -87.28,57.67 -91.01,61.95 -94.91,65.91 -98.81,69.87 -103.56,73.75 -108.31,77.64 -112.53,78.74 -116.74,79.84 -123.37,78.90 -130.01,77.96 -133.54,75.53 -137.07,73.09 -140.99,68.79 -144.90,64.49 -148.82,58.16 -152.74,51.84 -152.28,45.65 -151.82,39.45 -147.60,34.98 -143.39,30.51 -139.88,27.72 -136.37,24.93 -133.79,20.80 -131.21,16.67 -127.78,12.95 -124.36,9.23 -122.11,5.46 -119.87,1.69 -116.99,-2.32 -114.12,-6.35 -111.88,-10.30 -109.65,-14.25 -106.63,-18.96 -103.62,-23.67 -100.92,-27.44 -98.22,-31.22 -96.60,-35.27 -94.98,-39.33 -92.94,-43.41 -90.90,-47.49 -89.25,-52.76 -87.60,-58.03 -85.69,-64.91 -83.78,-71.79 -82.29,-75.94 -80.79,-80.08 -78.71,-84.33 -76.63,-88.57 -76.00,-93.68 -75.37,-98.79 -73.82,-104.60 -72.28,-110.42 -70.96,-116.12 -69.64,-121.82 -69.17,-128.50 -68.70,-135.19 -67.30,-142.46 -65.91,-149.72 -64.77,-154.88 -63.64,-160.03 -59.46,-163.80 -55.28,-167.56 -51.15,-169.45 -47.02,-171.33 -42.11,-169.48 -37.21,-167.63 -33.64,-163.58 -30.08,-159.54 -27.97,-155.79 -25.86,-152.04 -23.80,-147.82 -21.75,-143.60 -19.12,-139.35 -16.50,-135.10 -14.15,-131.03 -11.81,-126.95 -10.27,-122.36 -8.73,-117.77 -7.80,-113.07 -6.87,-108.37 -4.77,-104.62 -2.67,-100.87 -0.84,-96.08 0.99,-91.28 2.62,-86.12 4.24,-80.97 0.90,-85.33 -2.43,-89.70 1.51,-85.52 5.47,-81.34 7.50,-76.35 9.53,-71.35 10.11,-67.02 10.70,-62.69 13.15,-57.35 15.60,-52.00 18.21,-47.17 20.83,-42.34 22.75,-37.88 24.68,-33.43 26.80,-29.29 28.92,-25.15 30.33,-20.80 31.74,-16.45 32.51,-11.64 33.28,-6.84 34.17,-2.59 35.06,1.66 34.25,6.10 33.45,10.54 29.11,15.03 24.77,19.52 18.42,19.98 12.07,20.44 7.45,17.36 2.83,14.28 -0.46,9.92 -3.77,5.56 -5.83,1.14 -7.90,-3.27 -10.62,-7.73 -13.35,-12.19 -15.10,-16.23 -16.86,-20.26 -16.01,-18.83 -15.16,-17.40 -16.21,-19.75 -17.27,-22.10 -17.51,-24.67 -17.76,-27.23 -17.18,-29.74 -16.59,-32.26 -15.24,-34.45 -13.88,-36.64 -11.90,-38.29 -9.91,-39.93 -7.50,-40.86 -5.10,-41.78 -2.52,-41.89 0.04,-42.00 2.52,-41.28 4.99,-40.56 7.11,-39.08 9.23,-37.61 10.76,-35.54 12.30,-33.47 13.09,-31.02 13.88,-28.56 13.85,-25.99 13.82,-23.41 12.97,-20.97 12.11,-18.54 10.53,-16.51 8.94,-14.48 6.79,-13.05 4.64,-11.63 2.15,-10.98 -0.33,-10.32 -2.91,-10.49 -5.48,-10.66 -7.86,-11.64 -10.25,-12.63 -12.19,-14.32 -14.13,-16.01 -15.44,-18.24 -16.74,-20.46 -17.26,-22.99 -17.78,-25.51 -17.47,-28.07 -17.16,-30.63 -16.05,-32.96 -14.94,-35.28 -13.14,-37.13 -11.35,-38.98 -9.06,-40.16 -6.76,-41.34 -4.21,-41.73 -1.67,-42.11 0.86,-41.66 3.40,-41.21 5.66,-39.98 7.93,-38.74 9.68,-36.85 11.43,-34.96 11.43,-34.96 11.42,-34.96 11.11,-33.95 10.79,-32.94 12.87,-29.00 14.96,-25.05 17.11,-21.29 19.26,-17.54 21.41,-13.27 23.55,-9.01 19.19,-9.62 14.82,-10.23 10.50,-7.67 6.18,-5.10 5.45,0.54 4.71,6.20 3.63,0.28 2.56,-5.62 1.37,-9.79 0.18,-13.97 -1.88,-18.86 -3.95,-23.76 -5.83,-27.98 -7.71,-32.20 -10.41,-36.49 -13.10,-40.78 -15.31,-45.84 -17.52,-50.91 -18.84,-56.02 -20.16,-61.13 -22.26,-65.95 -24.35,-70.77 -21.17,-66.35 -17.98,-61.92 -21.73,-66.25 -25.48,-70.58 -26.88,-74.98 -28.27,-79.38 -29.39,-83.89 -30.50,-88.40 -33.65,-93.76 -36.80,-99.11 -37.87,-104.12 -38.93,-109.13 -40.72,-113.11 -42.50,-117.10 -44.61,-121.46 -46.72,-125.82 -48.51,-129.69 -50.30,-133.55 -52.57,-137.42 -54.84,-141.30 -48.16,-142.50 -41.48,-143.70 -37.43,-147.13 -33.39,-150.56 -34.86,-146.50 -36.34,-142.45 -36.65,-137.98 -36.97,-133.52 -38.35,-129.34 -39.72,-125.17 -39.77,-120.90 -39.82,-116.63 -40.72,-112.35 -41.62,-108.07 -43.01,-103.54 -44.39,-99.00 -45.06,-94.57 -45.73,-90.14 -46.61,-85.69 -47.50,-81.25 -49.04,-77.17 -50.59,-73.09 -52.18,-69.02 -53.76,-64.96 -55.24,-60.35 -56.72,-55.74 -58.01,-51.30 -59.29,-46.87 -60.28,-42.24 -61.27,-37.61 -63.44,-33.18 -65.61,-28.75 -67.14,-24.40 -68.67,-20.05 -71.20,-15.44 -73.72,-10.84 -76.49,-6.98 -79.26,-3.12 -82.54,2.31 -85.82,7.74 -88.16,11.30 -90.50,14.86 -93.37,18.89 -96.24,22.91 -98.80,26.67 -101.35,30.43 -104.18,33.66 -107.00,36.90 -109.85,40.40 -112.70,43.90 -114.86,47.69 -117.01,51.48 -122.02,54.38 -127.03,57.29 -123.80,50.91 -120.58,44.54 -117.42,47.54 -114.26,50.53 -119.19,50.84 -124.12,51.15 -120.48,47.60 -116.83,44.05 -112.26,39.59 -107.69,35.14 -110.28,38.61 -112.87,42.09 -110.37,38.41 -107.86,34.72 -105.96,29.78 -104.06,24.84 -101.07,20.36 -98.08,15.88 -95.54,11.90 -93.01,7.93 -89.69,4.33 -86.36,0.73 -85.08,-3.82 -83.80,-8.39 -81.69,-12.95 -79.59,-17.52 -77.03,-22.11 -74.48,-26.71 -72.32,-31.95 -70.17,-37.20 -68.03,-41.28 -65.90,-45.36 -64.70,-49.66 -63.51,-53.97 -61.78,-58.87 -60.04,-63.76 -56.83,-68.76 -53.62,-73.75 -49.94,-77.25 -46.26,-80.75 -42.40,-82.97 -38.55,-85.18 -31.87,-85.08 -25.19,-84.98 -21.71,-81.60 -18.23,-78.22 -16.06,-74.37 -13.89,-70.51 -11.35,-64.75 -8.82,-58.98 -7.01,-55.04 -5.20,-51.10 -2.50,-45.90 0.19,-40.71 2.39,-36.92 4.58,-33.14 6.75,-29.38 8.92,-25.63 11.76,-21.39 14.61,-17.15 17.81,-14.16 21.01,-11.17 22.92,-9.82 24.84,-8.48 25.78,-7.76 26.72,-7.05 27.47,-6.13 28.21,-5.21 28.72,-4.14 29.22,-3.07 29.45,-1.91 29.68,-0.75 29.63,0.43 29.58,1.61 29.24,2.74 28.91,3.88 28.31,4.90 27.72,5.93 26.89,6.78 26.07,7.63 25.07,8.25 24.06,8.88 22.94,9.25 21.82,9.62 20.64,9.71 19.46,9.80 18.29,9.61 17.12,9.41 16.04,8.95 14.95,8.48 14.95,8.48 L 14.95,8.48 Z"></path></g><g transform="translate(123.88112518811431 144.90243460032343) rotate(0.051526600419540804 -37.64649339401058 30.666918173340036)" stroke="none"><path fill="#5f3dc4" d="M -10.09,0.67 Q -10.09,0.67 -10.41,-1.46 -10.73,-3.60 -12.66,-7.76 -14.59,-11.92 -16.02,-16.53 -17.44,-21.15 -18.85,-25.65 -20.25,-30.15 -21.14,-34.40 -22.04,-38.65 -15.93,-36.37 -9.82,-34.09 -5.11,-37.38 -0.40,-40.66 -0.06,-36.27 0.27,-31.89 -0.55,-27.13 -1.38,-22.37 -2.43,-16.94 -3.49,-11.52 -4.47,-6.78 -5.45,-2.05 -7.49,2.18 -9.53,6.42 -12.58,10.07 -15.63,13.72 -16.39,18.92 -17.15,24.12 -18.40,28.33 -19.66,32.55 -20.98,36.66 -22.31,40.77 -24.09,45.42 -25.86,50.06 -27.93,54.55 -29.99,59.04 -32.09,63.86 -34.20,68.69 -36.96,74.97 -39.72,81.26 -42.28,85.15 -44.85,89.05 -47.66,92.38 -50.48,95.71 -53.76,101.02 -57.05,106.33 -59.33,110.15 -61.61,113.97 -60.96,113.02 -60.31,112.07 -61.31,113.65 -62.31,115.22 -63.66,116.51 -65.01,117.80 -66.63,118.73 -68.25,119.66 -70.04,120.17 -71.83,120.68 -73.70,120.75 -75.56,120.82 -77.39,120.45 -79.22,120.07 -80.90,119.26 -82.58,118.46 -84.02,117.28 -85.47,116.09 -86.58,114.60 -87.70,113.10 -88.43,111.39 -89.15,109.67 -89.45,107.83 -89.74,105.98 -89.58,104.12 -89.43,102.27 -88.83,100.50 -88.24,98.73 -85.08,95.34 -81.93,91.95 -79.58,91.08 -77.24,90.21 -74.73,90.14 -72.23,90.06 -69.83,90.79 -67.44,91.52 -65.40,92.97 -63.36,94.43 -61.90,96.46 -60.43,98.49 -59.69,100.88 -58.95,103.27 -59.01,105.77 -59.07,108.27 -59.92,110.63 -60.78,112.98 -62.34,114.94 -63.91,116.89 -66.01,118.25 -68.12,119.60 -70.55,120.21 -72.98,120.82 -75.47,120.63 -77.97,120.43 -80.27,119.45 -82.57,118.47 -84.44,116.80 -86.31,115.13 -87.55,112.96 -88.79,110.78 -89.27,108.32 -89.74,105.86 -89.41,103.38 -89.08,100.90 -87.98,98.65 -86.87,96.41 -85.10,94.63 -83.34,92.86 -81.10,91.74 -78.86,90.62 -76.38,90.28 -73.90,89.93 -71.44,90.40 -68.98,90.86 -66.79,92.09 -64.61,93.31 -62.93,95.17 -61.26,97.03 -60.26,99.33 -59.27,101.63 -59.06,104.12 -58.85,106.62 -59.44,109.05 -60.04,111.48 -61.39,113.59 -62.73,115.71 -61.52,113.89 -60.31,112.07 -61.31,113.65 -62.31,115.22 -63.66,116.51 -65.01,117.80 -66.63,118.73 -68.25,119.66 -70.04,120.17 -71.83,120.68 -73.70,120.75 -75.56,120.82 -77.39,120.45 -79.21,120.07 -80.90,119.27 -82.58,118.46 -84.02,117.28 -85.46,116.09 -86.58,114.60 -87.70,113.11 -88.42,111.39 -89.15,109.67 -89.45,107.83 -89.74,105.98 -89.59,104.13 -89.43,102.27 -88.83,100.50 -88.24,98.73 -86.76,96.12 -85.28,93.50 -82.92,89.31 -80.57,85.12 -77.44,80.71 -74.31,76.30 -70.96,72.46 -67.62,68.62 -65.83,64.59 -64.04,60.56 -62.22,56.69 -60.39,52.83 -58.61,48.81 -56.82,44.80 -55.02,40.58 -53.22,36.36 -51.14,31.45 -49.05,26.54 -47.35,20.77 -45.64,14.99 -43.62,9.61 -41.60,4.24 -39.64,-0.41 -37.67,-5.06 -35.08,-8.45 -32.49,-11.84 -31.41,-17.07 -30.34,-22.30 -29.21,-26.66 -28.08,-31.01 -26.86,-36.17 -25.64,-41.33 -23.16,-45.96 -20.68,-50.60 -15.84,-53.92 -10.99,-57.25 -4.14,-51.94 2.69,-46.64 3.84,-39.90 5.00,-33.16 5.63,-28.06 6.27,-22.96 7.30,-18.69 8.33,-14.42 9.24,-9.80 10.14,-5.17 10.11,-2.92 10.09,-0.67 10.02,0.53 9.96,1.75 9.60,2.92 9.25,4.08 8.62,5.13 8.00,6.18 7.14,7.05 6.29,7.92 5.25,8.55 4.21,9.19 3.05,9.56 1.89,9.93 0.67,10.02 -0.54,10.10 -1.74,9.88 -2.94,9.67 -4.06,9.18 -5.17,8.69 -6.14,7.94 -7.10,7.20 -7.86,6.24 -8.62,5.29 -9.13,4.18 -9.63,3.07 -9.86,1.87 -10.09,0.67 -10.09,0.67 L -10.09,0.67 Z"></path></g><g transform="translate(49.625705024832314 259.6205933886822) rotate(0.051526600419540804 -2.6481123367711916 1.5041909201918315)" stroke="none"><path fill="#5f3dc4" d="M 4.57,8.04 Q 4.57,8.04 2.00,9.69 -0.56,11.33 -2.02,11.87 -3.47,12.40 -5.02,12.45 -6.57,12.49 -8.05,12.04 -9.53,11.59 -10.79,10.69 -12.05,9.79 -12.95,8.53 -13.86,7.27 -14.32,5.79 -14.78,4.31 -14.74,2.77 -14.70,1.22 -14.17,-0.23 -13.64,-1.68 -12.67,-2.89 -11.70,-4.10 -10.40,-4.94 -9.09,-5.78 -7.59,-6.15 -6.09,-6.53 -4.54,-6.41 -3.00,-6.28 -1.57,-5.67 -0.15,-5.06 1.00,-4.03 2.15,-3.00 2.92,-1.65 3.68,-0.31 3.98,1.21 4.27,2.73 4.06,4.26 3.86,5.80 3.17,7.19 2.49,8.58 1.39,9.67 0.30,10.77 -1.08,11.46 -2.46,12.15 -4.00,12.36 -5.53,12.58 -7.06,12.29 -8.58,12.00 -9.93,11.24 -11.28,10.48 -12.31,9.33 -13.35,8.17 -13.96,6.75 -14.58,5.33 -14.71,3.79 -14.84,2.24 -14.46,0.74 -14.09,-0.76 -13.26,-2.06 -12.43,-3.37 -11.22,-4.34 -10.02,-5.31 -10.02,-5.31 -10.02,-5.31 -7.29,-6.68 -4.57,-8.04 -3.54,-8.47 -2.51,-8.90 -1.41,-9.08 -0.30,-9.25 0.80,-9.15 1.91,-9.05 2.97,-8.69 4.02,-8.33 4.96,-7.73 5.90,-7.12 6.67,-6.31 7.43,-5.50 7.99,-4.53 8.54,-3.56 8.84,-2.49 9.14,-1.42 9.18,-0.30 9.22,0.81 8.99,1.90 8.75,2.99 8.27,3.99 7.78,5.00 7.07,5.86 6.36,6.72 5.46,7.38 4.57,8.04 4.57,8.04 L 4.57,8.04 Z"></path></g><g transform="translate(289.4301387763626 323.2772545672742) rotate(0.051526600419540804 -59.109402875937576 -148.56974300357479)" stroke="none"><path fill="#5f3dc4" d="M 4.84,-8.31 Q 4.84,-8.31 6.63,-7.49 8.41,-6.67 11.97,-4.13 15.52,-1.59 19.63,2.73 23.73,7.05 23.48,12.34 23.23,17.63 19.81,20.96 16.38,24.29 12.24,26.02 8.10,27.76 3.72,28.34 -0.64,28.93 -5.92,28.16 -11.20,27.40 -15.12,24.92 -19.04,22.44 -22.37,19.28 -25.70,16.11 -28.38,12.29 -31.06,8.46 -32.44,3.93 -33.81,-0.60 -35.83,-4.66 -37.84,-8.73 -39.26,-13.13 -40.68,-17.53 -41.71,-21.97 -42.75,-26.40 -43.66,-31.64 -44.57,-36.87 -46.65,-41.57 -48.72,-46.27 -49.70,-50.94 -50.68,-55.62 -51.49,-60.00 -52.30,-64.38 -53.31,-69.01 -54.33,-73.64 -55.35,-78.00 -56.38,-82.37 -57.49,-86.76 -58.60,-91.15 -59.18,-95.41 -59.76,-99.68 -60.62,-104.10 -61.47,-108.52 -61.71,-113.76 -61.95,-118.99 -62.61,-123.46 -63.28,-127.93 -64.14,-132.58 -65.00,-137.22 -66.00,-141.89 -66.99,-146.55 -67.96,-150.91 -68.93,-155.26 -70.29,-159.89 -71.65,-164.51 -72.77,-168.94 -73.90,-173.38 -74.43,-177.70 -74.96,-182.03 -74.97,-186.37 -74.97,-190.71 -75.91,-195.09 -76.86,-199.48 -77.88,-204.51 -78.90,-209.54 -79.86,-214.41 -80.82,-219.29 -80.86,-223.80 -80.90,-228.32 -80.91,-232.68 -80.92,-237.05 -80.92,-241.57 -80.92,-246.08 -81.73,-250.49 -82.53,-254.90 -83.61,-259.27 -84.70,-263.65 -85.44,-268.00 -86.19,-272.35 -87.34,-276.64 -88.50,-280.92 -89.11,-285.26 -89.72,-289.60 -88.54,-296.85 -87.36,-304.09 -87.59,-308.49 -87.82,-312.90 -87.58,-314.80 -87.35,-316.71 -86.67,-318.50 -85.99,-320.30 -84.90,-321.88 -83.81,-323.46 -82.37,-324.73 -80.94,-326.00 -79.24,-326.90 -77.54,-327.79 -75.67,-328.25 -73.81,-328.71 -71.89,-328.71 -69.97,-328.71 -68.10,-328.25 -66.24,-327.79 -64.54,-326.89 -62.84,-326.00 -61.40,-324.73 -59.97,-323.46 -58.88,-321.88 -57.79,-320.30 -57.10,-318.50 -56.42,-316.71 -56.19,-314.80 -55.96,-312.89 -56.47,-308.20 -56.99,-303.50 -57.38,-298.71 -57.78,-293.91 -58.51,-289.61 -59.23,-285.30 -60.33,-279.93 -61.42,-274.55 -62.57,-269.00 -63.72,-263.44 -64.90,-258.33 -66.08,-253.21 -67.94,-247.83 -69.81,-242.44 -70.39,-237.34 -70.97,-232.24 -72.50,-227.83 -74.02,-223.41 -74.78,-217.94 -75.55,-212.46 -77.30,-207.82 -79.05,-203.19 -80.26,-198.32 -81.47,-193.45 -83.37,-187.93 -85.28,-182.41 -87.10,-178.36 -88.93,-174.31 -91.45,-170.32 -93.96,-166.33 -98.04,-161.54 -102.11,-156.76 -106.28,-152.69 -110.45,-148.63 -113.78,-145.25 -117.10,-141.88 -118.92,-140.07 -120.73,-138.26 -122.89,-136.86 -125.05,-135.47 -127.55,-134.83 -130.04,-134.20 -132.61,-134.40 -135.17,-134.59 -137.54,-135.60 -139.91,-136.60 -141.83,-138.31 -143.75,-140.02 -145.03,-142.26 -146.31,-144.49 -146.80,-147.01 -147.30,-149.54 -146.97,-152.09 -146.63,-154.64 -145.50,-156.95 -144.37,-159.26 -142.56,-161.09 -140.75,-162.91 -138.45,-164.07 -136.15,-165.22 -133.60,-165.58 -131.05,-165.94 -128.52,-165.47 -125.99,-164.99 -123.75,-163.74 -121.50,-162.48 -119.78,-160.58 -118.05,-158.67 -117.02,-156.31 -116.00,-153.95 -115.78,-151.39 -115.55,-148.83 -116.16,-146.33 -116.77,-143.83 -118.15,-141.65 -119.52,-139.48 -121.52,-137.86 -123.52,-136.24 -125.93,-135.34 -128.34,-134.44 -130.91,-134.36 -133.48,-134.28 -135.94,-135.02 -138.41,-135.77 -140.50,-137.26 -142.60,-138.75 -144.11,-140.83 -145.62,-142.91 -146.39,-145.37 -147.15,-147.82 -147.10,-150.40 -147.04,-152.97 -146.16,-155.39 -145.28,-157.81 -143.68,-159.82 -142.08,-161.83 -142.08,-161.83 -142.08,-161.83 -142.37,-160.73 -142.66,-159.63 -138.54,-164.17 -134.43,-168.71 -130.81,-171.97 -127.18,-175.24 -124.19,-178.67 -121.20,-182.09 -118.50,-186.44 -115.81,-190.78 -114.38,-195.16 -112.95,-199.55 -110.69,-204.80 -108.42,-210.05 -107.40,-214.32 -106.38,-218.59 -105.40,-222.91 -104.43,-227.23 -103.22,-231.63 -102.01,-236.03 -101.43,-240.35 -100.86,-244.68 -99.18,-250.41 -97.51,-256.15 -96.73,-260.59 -95.95,-265.02 -94.77,-270.14 -93.59,-275.25 -92.64,-279.89 -91.69,-284.52 -90.81,-289.22 -89.94,-293.92 -89.34,-298.29 -88.75,-302.66 -88.28,-307.77 -87.82,-312.89 -87.58,-314.80 -87.35,-316.71 -86.67,-318.50 -85.99,-320.30 -84.90,-321.88 -83.81,-323.46 -82.37,-324.73 -80.94,-326.00 -79.24,-326.89 -77.54,-327.79 -75.67,-328.25 -73.81,-328.71 -71.89,-328.71 -69.97,-328.71 -68.11,-328.25 -66.24,-327.79 -64.54,-326.90 -62.84,-326.00 -61.40,-324.73 -59.97,-323.46 -58.88,-321.88 -57.79,-320.30 -57.11,-318.50 -56.42,-316.71 -56.19,-314.80 -55.96,-312.90 -55.96,-312.15 -55.96,-311.40 -55.97,-306.91 -55.97,-302.42 -56.95,-298.07 -57.94,-293.71 -57.33,-289.43 -56.73,-285.15 -55.67,-280.67 -54.60,-276.20 -53.74,-270.52 -52.88,-264.84 -51.62,-259.57 -50.35,-254.30 -49.74,-249.61 -49.12,-244.93 -49.12,-240.34 -49.13,-235.75 -49.13,-231.33 -49.14,-226.92 -49.18,-222.66 -49.23,-218.40 -47.73,-212.35 -46.23,-206.30 -45.31,-201.82 -44.40,-197.34 -43.83,-190.70 -43.26,-184.05 -43.03,-179.72 -42.79,-175.38 -41.22,-170.50 -39.66,-165.62 -38.45,-161.07 -37.25,-156.53 -36.19,-151.04 -35.13,-145.56 -34.24,-140.60 -33.34,-135.64 -32.08,-128.60 -30.81,-121.57 -30.89,-115.54 -30.97,-109.52 -30.07,-103.98 -29.18,-98.44 -27.81,-91.90 -26.44,-85.37 -25.66,-80.72 -24.89,-76.08 -23.27,-70.82 -21.65,-65.56 -21.29,-60.92 -20.92,-56.28 -19.30,-52.00 -17.67,-47.71 -15.88,-40.16 -14.10,-32.61 -13.20,-27.72 -12.31,-22.84 -10.45,-16.89 -8.59,-10.94 -6.35,-5.38 -4.11,0.16 -0.79,3.61 2.53,7.05 3.36,12.40 4.20,17.76 1.26,14.18 -1.67,10.61 -3.25,9.46 -4.84,8.31 -5.77,7.61 -6.69,6.90 -7.42,6.00 -8.15,5.10 -8.64,4.05 -9.14,3.00 -9.36,1.86 -9.59,0.73 -9.54,-0.42 -9.49,-1.58 -9.16,-2.69 -8.83,-3.81 -8.25,-4.81 -7.66,-5.81 -6.85,-6.64 -6.05,-7.48 -5.06,-8.09 -4.08,-8.71 -2.98,-9.07 -1.88,-9.43 -0.72,-9.52 0.43,-9.61 1.57,-9.42 2.71,-9.23 3.78,-8.77 4.84,-8.31 4.84,-8.31 L 4.84,-8.31 Z"></path></g><g transform="translate(231.53475135822464 166.41506185452) rotate(0.051526600419540804 -31.97416476896069 18.714958943752208)" stroke="none"><path fill="#5f3dc4" d="M -9.09,3.49 Q -9.09,3.49 -9.97,1.72 -10.85,-0.04 -14.47,-4.18 -18.09,-8.33 -14.46,-6.11 -10.83,-3.89 -15.34,-2.16 -19.86,-0.43 -20.76,4.48 -21.67,9.40 -23.37,13.45 -25.07,17.51 -26.81,22.25 -28.54,27.00 -30.41,31.21 -32.27,35.42 -34.42,39.28 -36.58,43.15 -38.21,48.21 -39.85,53.27 -43.27,56.94 -46.70,60.60 -50.61,63.13 -54.52,65.65 -58.46,66.72 -62.39,67.80 -64.84,67.65 -67.30,67.50 -69.58,66.58 -71.86,65.65 -73.72,64.05 -75.59,62.45 -76.84,60.33 -78.10,58.22 -78.61,55.81 -79.13,53.41 -78.85,50.96 -78.57,48.52 -77.52,46.29 -76.48,44.07 -74.77,42.29 -73.07,40.51 -70.89,39.38 -68.71,38.24 -66.28,37.85 -63.85,37.47 -61.43,37.88 -59.00,38.30 -56.84,39.46 -54.67,40.63 -52.99,42.42 -51.31,44.22 -50.29,46.46 -49.27,48.69 -49.02,51.14 -48.77,53.59 -49.31,55.99 -49.85,58.39 -51.14,60.49 -52.42,62.59 -54.30,64.17 -56.19,65.75 -58.48,66.64 -60.77,67.54 -63.22,67.66 -65.68,67.78 -68.05,67.10 -70.41,66.43 -72.44,65.04 -74.47,63.65 -75.94,61.68 -77.42,59.71 -78.19,57.38 -78.96,55.04 -78.95,52.58 -78.93,50.12 -78.13,47.79 -77.33,45.47 -75.83,43.52 -74.33,41.57 -72.29,40.20 -70.24,38.84 -67.87,38.19 -65.49,37.55 -65.50,37.55 -65.50,37.55 -64.74,36.61 -63.98,35.66 -62.05,30.66 -60.11,25.66 -57.84,21.50 -55.57,17.34 -53.41,13.28 -51.25,9.21 -49.44,5.13 -47.64,1.04 -45.10,-3.99 -42.57,-9.03 -39.58,-13.41 -36.59,-17.80 -32.68,-20.61 -28.77,-23.42 -24.07,-25.09 -19.38,-26.76 -13.88,-26.73 -8.38,-26.70 -4.51,-24.53 -0.65,-22.36 1.80,-18.77 4.25,-15.17 6.14,-11.24 8.02,-7.31 8.55,-5.40 9.09,-3.49 9.37,-2.36 9.66,-1.22 9.67,-0.04 9.67,1.12 9.40,2.26 9.12,3.41 8.58,4.45 8.04,5.49 7.26,6.37 6.49,7.26 5.53,7.93 4.56,8.60 3.47,9.02 2.37,9.44 1.21,9.59 0.04,9.74 -1.11,9.60 -2.28,9.47 -3.38,9.05 -4.48,8.64 -5.45,7.98 -6.42,7.32 -7.20,6.44 -7.99,5.57 -8.54,4.53 -9.09,3.49 -9.09,3.49 L -9.09,3.49 Z"></path></g><g transform="translate(163.43412705114224 200.02743981411004) rotate(0.051526600419540804 24.30057026367558 -37.424791905869824)" stroke="none"><path fill="#5f3dc4" d="M -9.50,-3.36 Q -9.50,-3.36 -8.96,-5.40 -8.43,-7.44 -6.95,-12.09 -5.46,-16.75 -3.29,-21.90 -1.12,-27.04 1.31,-31.23 3.75,-35.42 6.70,-39.68 9.64,-43.95 12.01,-47.52 14.38,-51.09 17.46,-55.48 20.54,-59.86 22.87,-64.08 25.20,-68.29 28.08,-72.15 30.96,-76.00 34.86,-79.78 38.75,-83.57 38.56,-84.23 38.36,-84.90 40.24,-86.35 42.13,-87.80 44.38,-88.57 46.63,-89.34 49.01,-89.36 51.39,-89.37 53.65,-88.62 55.91,-87.87 57.81,-86.44 59.71,-85.01 61.06,-83.05 62.40,-81.09 63.05,-78.80 63.70,-76.51 63.58,-74.14 63.47,-71.76 62.60,-69.54 61.73,-67.33 60.20,-65.51 58.67,-63.69 56.64,-62.45 54.60,-61.21 52.28,-60.69 49.96,-60.16 47.59,-60.41 45.23,-60.65 43.06,-61.64 40.90,-62.63 39.16,-64.26 37.43,-65.88 36.30,-67.98 35.18,-70.08 34.78,-72.42 34.38,-74.77 34.75,-77.12 35.13,-79.47 36.23,-81.58 37.33,-83.68 39.05,-85.33 40.77,-86.97 42.93,-87.98 45.08,-88.99 47.44,-89.26 49.81,-89.53 52.14,-89.03 54.46,-88.53 56.51,-87.32 58.55,-86.10 60.10,-84.30 61.65,-82.49 62.54,-80.29 63.43,-78.08 63.58,-75.70 63.72,-73.33 63.09,-71.03 62.47,-68.74 61.14,-66.76 59.82,-64.79 59.82,-64.79 59.82,-64.79 58.43,-63.31 57.03,-61.83 53.35,-57.51 49.67,-53.18 47.30,-49.49 44.93,-45.79 41.97,-42.02 39.00,-38.25 36.14,-34.95 33.29,-31.65 30.26,-27.84 27.24,-24.04 24.43,-20.82 21.63,-17.60 19.42,-13.85 17.21,-10.11 14.22,-5.28 11.24,-0.46 10.37,1.45 9.50,3.36 8.95,4.45 8.41,5.54 7.63,6.47 6.84,7.39 5.86,8.11 4.87,8.82 3.75,9.27 2.62,9.73 1.42,9.90 0.21,10.07 -0.99,9.95 -2.20,9.83 -3.34,9.43 -4.49,9.02 -5.50,8.35 -6.52,7.68 -7.34,6.79 -8.17,5.90 -8.75,4.84 -9.34,3.77 -9.66,2.60 -9.97,1.43 -10.00,0.21 -10.03,-0.99 -9.76,-2.18 -9.50,-3.37 -9.50,-3.37 L -9.50,-3.36 Z"></path></g><g transform="translate(225.81589952800095 11.776019216890745) rotate(0.051526600419540804 32.4970148955731 160.0416898992521)" stroke="none"><path fill="#5f3dc4" d="M 8.01,-5.34 Q 8.01,-5.34 9.30,-3.76 10.59,-2.19 13.67,1.53 16.75,5.26 18.87,9.72 20.99,14.18 23.55,17.80 26.12,21.42 27.33,26.16 28.54,30.90 29.54,35.17 30.53,39.44 31.98,44.81 33.44,50.18 34.10,54.40 34.77,58.61 35.14,63.22 35.51,67.82 35.63,72.45 35.75,77.09 35.85,81.52 35.94,85.95 36.02,90.58 36.09,95.21 36.16,99.69 36.22,104.17 36.28,108.66 36.33,113.15 36.37,117.65 36.41,122.15 36.70,126.47 36.98,130.80 37.25,135.06 37.53,139.32 37.55,143.84 37.57,148.37 38.53,152.51 39.50,156.66 40.49,161.48 41.48,166.30 41.79,170.77 42.09,175.25 43.30,180.16 44.50,185.06 45.49,189.67 46.47,194.27 47.38,198.66 48.28,203.04 49.11,207.74 49.94,212.43 50.93,217.55 51.91,222.67 53.12,227.65 54.32,232.63 55.43,237.61 56.55,242.58 58.33,247.51 60.10,252.43 61.96,257.38 63.83,262.32 65.44,267.30 67.05,272.27 69.00,277.16 70.96,282.04 72.71,286.06 74.46,290.09 75.97,294.11 77.48,298.14 78.96,302.90 80.44,307.66 80.65,312.03 80.86,316.40 79.07,322.59 77.28,328.78 75.54,330.67 73.81,332.56 71.56,333.80 69.31,335.04 66.78,335.49 64.25,335.95 61.71,335.57 59.17,335.20 56.89,334.03 54.60,332.86 52.80,331.03 51.01,329.19 49.89,326.88 48.78,324.56 48.46,322.02 48.14,319.47 48.66,316.95 49.17,314.43 50.46,312.21 51.75,309.99 53.68,308.30 55.61,306.61 57.98,305.62 60.35,304.63 62.91,304.45 65.47,304.27 67.96,304.92 70.44,305.57 72.59,306.98 74.74,308.39 76.33,310.41 77.91,312.43 78.77,314.85 79.63,317.27 79.67,319.83 79.71,322.40 78.92,324.85 78.14,327.29 76.62,329.36 75.10,331.43 73.00,332.90 70.89,334.38 68.43,335.10 65.97,335.83 63.40,335.73 60.83,335.63 58.43,334.72 56.03,333.80 54.05,332.17 52.07,330.54 50.71,328.36 49.35,326.18 48.76,323.68 48.17,321.18 48.41,318.63 48.65,316.07 49.69,313.72 50.73,311.37 50.73,311.38 50.73,311.38 50.10,311.77 49.47,312.16 47.78,307.79 46.09,303.43 44.20,299.47 42.32,295.51 40.61,290.88 38.90,286.25 37.24,280.93 35.57,275.62 33.43,270.11 31.28,264.60 29.60,260.03 27.93,255.45 25.94,249.02 23.95,242.59 23.03,237.86 22.10,233.12 21.58,228.33 21.07,223.55 20.11,217.67 19.16,211.79 17.66,206.87 16.15,201.95 15.18,197.30 14.22,192.65 13.37,187.96 12.53,183.27 11.97,179.00 11.40,174.73 10.53,168.97 9.66,163.21 8.37,158.93 7.08,154.65 6.76,148.13 6.43,141.61 6.39,136.64 6.35,131.68 5.97,126.91 5.60,122.15 5.64,117.65 5.69,113.15 5.74,108.66 5.79,104.17 5.86,99.69 5.92,95.21 6.00,90.58 6.08,85.95 6.17,81.52 6.26,77.09 6.51,72.77 6.75,68.44 6.58,62.84 6.42,57.23 5.68,52.32 4.94,47.41 4.87,42.31 4.80,37.20 2.99,31.38 1.17,25.56 -0.12,20.90 -1.42,16.24 -3.76,12.59 -6.09,8.93 -7.05,7.14 -8.01,5.34 -8.54,4.30 -9.06,3.27 -9.32,2.13 -9.58,1.00 -9.56,-0.15 -9.54,-1.31 -9.25,-2.43 -8.95,-3.56 -8.39,-4.58 -7.84,-5.60 -7.05,-6.45 -6.27,-7.31 -5.30,-7.96 -4.33,-8.60 -3.24,-8.99 -2.15,-9.39 -0.99,-9.51 0.15,-9.63 1.30,-9.47 2.45,-9.31 3.53,-8.88 4.61,-8.45 5.56,-7.78 6.50,-7.10 7.26,-6.22 8.01,-5.34 8.01,-5.34 L 8.01,-5.34 Z"></path></g></svg>